<svg width="55" height="39" viewBox="0 0 55 39" fill="none" xmlns="http://www.w3.org/2000/svg">
<path d="M51.0388 17.1188H11.9438L29.0238 4.90208C30.3888 3.92574 30.3888 2.32354 29.0238 1.34721C28.3698 0.878433 27.4821 0.61499 26.5563 0.61499C25.6304 0.61499 24.7427 0.878433 24.0888 1.34721L1.02375 17.8448C-0.34125 18.8211 -0.34125 20.3983 1.02375 21.3746L24.0888 37.8722C25.4538 38.8486 27.6588 38.8486 29.0238 37.8722C30.3888 36.8959 30.3888 35.3187 29.0238 34.3424L11.9438 22.1257H51.0388C52.9638 22.1257 54.5388 20.9991 54.5388 19.6222C54.5388 18.2454 52.9638 17.1188 51.0388 17.1188Z" fill="#6D7D8B"/>
</svg>
