<svg width="55" height="39" viewBox="0 0 55 39" fill="none" xmlns="http://www.w3.org/2000/svg">
<path d="M3.50006 17.1188H42.5951L25.5151 4.90208C24.1501 3.92574 24.1501 2.32354 25.5151 1.34721C26.169 0.878433 27.0568 0.61499 27.9826 0.61499C28.9084 0.61499 29.7962 0.878433 30.4501 1.34721L53.5151 17.8448C54.8801 18.8211 54.8801 20.3983 53.5151 21.3746L30.4501 37.8722C29.0851 38.8486 26.8801 38.8486 25.5151 37.8722C24.1501 36.8959 24.1501 35.3187 25.5151 34.3424L42.5951 22.1257H3.50006C1.57506 22.1257 6.10352e-05 20.9991 6.10352e-05 19.6222C6.10352e-05 18.2454 1.57506 17.1188 3.50006 17.1188Z" fill="#00D463"/>
</svg>
