<svg width="146" height="33" viewBox="0 0 146 33" fill="none" xmlns="http://www.w3.org/2000/svg">
<path d="M4.675 24.25C3.575 24.25 2.76667 23.9667 2.25 23.4C1.75 22.8333 1.5 22.1333 1.5 21.3V5.25H3.75V20C3.75 20.7333 3.79167 21.2667 3.875 21.6C3.975 21.9333 4.15833 22.1583 4.425 22.275C4.69167 22.3917 5.125 22.45 5.725 22.45L5.4 24.25H4.675ZM13.1861 24.25C11.7861 24.25 10.5861 23.9667 9.58613 23.4C8.6028 22.8167 7.8528 22.0333 7.33613 21.05C6.81947 20.0667 6.56113 18.975 6.56113 17.775C6.56113 16.625 6.79447 15.575 7.26113 14.625C7.74447 13.6583 8.43613 12.9 9.33613 12.35C10.2528 11.7833 11.3278 11.5 12.5611 11.5C14.1278 11.5 15.3945 11.9583 16.3611 12.875C17.3445 13.7917 17.8361 15.0583 17.8361 16.675C17.8361 17.0917 17.8028 17.4917 17.7361 17.875H8.86113C9.01113 19.4583 9.49447 20.5833 10.3111 21.25C11.1278 21.9167 12.1778 22.25 13.4611 22.25C14.7445 22.25 15.9195 22.0083 16.9861 21.525L17.2861 23.3C15.8695 23.9333 14.5028 24.25 13.1861 24.25ZM15.5111 16.325C15.5111 15.4417 15.2611 14.75 14.7611 14.25C14.2611 13.75 13.5111 13.5 12.5111 13.5C11.5445 13.5 10.7861 13.7417 10.2361 14.225C9.68613 14.6917 9.29447 15.3917 9.06113 16.325H15.5111ZM22.9541 24.25C21.8208 24.25 20.9041 23.9167 20.2041 23.25C19.5208 22.5833 19.1791 21.7333 19.1791 20.7C19.1791 19.15 19.9124 18.0417 21.3791 17.375C22.8458 16.7083 24.5541 16.3583 26.5041 16.325C26.5041 15.225 26.2874 14.4833 25.8541 14.1C25.4374 13.7 24.7624 13.5 23.8291 13.5C23.3124 13.5 22.7958 13.5833 22.2791 13.75C21.7624 13.9 21.2041 14.1833 20.6041 14.6L20.2791 12.775C20.7791 12.3917 21.3958 12.0833 22.1291 11.85C22.8624 11.6167 23.6291 11.5 24.4291 11.5C25.4791 11.5 26.3124 11.6833 26.9291 12.05C27.5624 12.4167 28.0208 13.025 28.3041 13.875C28.6041 14.725 28.7541 15.8917 28.7541 17.375V19.875C28.7541 20.5417 28.7791 21.05 28.8291 21.4C28.8958 21.7333 29.0291 21.9917 29.2291 22.175C29.4291 22.3583 29.7374 22.45 30.1541 22.45H30.3791L30.0291 24.25H29.8541C29.1541 24.25 28.6041 24.1833 28.2041 24.05C27.8041 23.9167 27.4958 23.725 27.2791 23.475C27.0791 23.225 26.8874 22.8833 26.7041 22.45C25.6708 23.65 24.4208 24.25 22.9541 24.25ZM23.3791 22.45C23.9791 22.45 24.5541 22.3 25.1041 22C25.6708 21.7 26.1374 21.3 26.5041 20.8V17.875C24.7041 17.9417 23.4124 18.1833 22.6291 18.6C21.8624 19 21.4791 19.6583 21.4791 20.575C21.4791 21.2083 21.6458 21.6833 21.9791 22C22.3291 22.3 22.7958 22.45 23.3791 22.45ZM32.1158 11.75H33.9658L34.2408 13.775C34.8742 12.9917 35.4742 12.4167 36.0408 12.05C36.6242 11.6833 37.2325 11.5 37.8658 11.5C38.0658 11.5 38.2575 11.525 38.4408 11.575L38.2158 14.05C37.9992 14 37.7492 13.975 37.4658 13.975C36.8492 13.975 36.2658 14.1167 35.7158 14.4C35.1658 14.6667 34.7658 14.9833 34.5158 15.35V24H32.1158V11.75ZM46.076 11.5C49.4093 11.5 51.076 13.4167 51.076 17.25V24H48.826V17.25C48.826 15.9333 48.576 14.9833 48.076 14.4C47.5926 13.8 46.776 13.5 45.626 13.5C44.8926 13.5 44.226 13.6333 43.626 13.9C43.026 14.1667 42.576 14.5667 42.276 15.1V24H40.026V11.75H41.776L42.026 13.05C42.676 12.4667 43.326 12.0667 43.976 11.85C44.6426 11.6167 45.3426 11.5 46.076 11.5ZM73.9061 11.5C77.0394 11.5 78.6061 13.2583 78.6061 16.775V24H76.3561V16.8C76.3561 15.65 76.1311 14.8167 75.6811 14.3C75.2311 13.7667 74.4977 13.5 73.4811 13.5C71.3144 13.5 70.2311 14.6333 70.2311 16.9V24H67.9811V17.25C67.9811 15.85 67.7311 14.875 67.2311 14.325C66.7477 13.775 66.0394 13.5 65.1061 13.5C64.3727 13.5 63.7227 13.6333 63.1561 13.9C62.5894 14.1667 62.1561 14.5667 61.8561 15.1V24H59.6061V11.75H61.3561L61.6061 13.05C62.2227 12.5 62.8394 12.1083 63.4561 11.875C64.0894 11.625 64.7644 11.5 65.4811 11.5C67.3477 11.5 68.6644 12.3167 69.4311 13.95C70.2811 12.3167 71.7727 11.5 73.9061 11.5ZM86.8799 24.25C85.6299 24.25 84.5465 23.975 83.6299 23.425C82.7132 22.8583 82.0132 22.0917 81.5299 21.125C81.0465 20.1583 80.8049 19.075 80.8049 17.875C80.8049 16.675 81.0465 15.5917 81.5299 14.625C82.0132 13.6583 82.7132 12.9 83.6299 12.35C84.5465 11.7833 85.6299 11.5 86.8799 11.5C88.1132 11.5 89.1882 11.7833 90.1049 12.35C91.0382 12.9 91.7465 13.6583 92.2299 14.625C92.7132 15.5917 92.9549 16.675 92.9549 17.875C92.9549 19.075 92.7132 20.1583 92.2299 21.125C91.7465 22.0917 91.0382 22.8583 90.1049 23.425C89.1882 23.975 88.1132 24.25 86.8799 24.25ZM86.8799 22.25C88.0799 22.25 89.0049 21.8667 89.6549 21.1C90.3216 20.3333 90.6549 19.2583 90.6549 17.875C90.6549 16.4917 90.3216 15.4167 89.6549 14.65C89.0049 13.8833 88.0799 13.5 86.8799 13.5C85.6799 13.5 84.7465 13.8833 84.0799 14.65C83.4299 15.4167 83.1049 16.4917 83.1049 17.875C83.1049 19.2583 83.4299 20.3333 84.0799 21.1C84.7465 21.8667 85.6799 22.25 86.8799 22.25ZM95.275 11.75H97.125L97.4 13.775C98.0333 12.9917 98.6333 12.4167 99.2 12.05C99.7833 11.6833 100.392 11.5 101.025 11.5C101.225 11.5 101.417 11.525 101.6 11.575L101.375 14.05C101.158 14 100.908 13.975 100.625 13.975C100.008 13.975 99.425 14.1167 98.875 14.4C98.325 14.6667 97.925 14.9833 97.675 15.35V24H95.275V11.75ZM108.743 24.25C107.343 24.25 106.143 23.9667 105.143 23.4C104.159 22.8167 103.409 22.0333 102.893 21.05C102.376 20.0667 102.118 18.975 102.118 17.775C102.118 16.625 102.351 15.575 102.818 14.625C103.301 13.6583 103.993 12.9 104.893 12.35C105.809 11.7833 106.884 11.5 108.118 11.5C109.684 11.5 110.951 11.9583 111.918 12.875C112.901 13.7917 113.393 15.0583 113.393 16.675C113.393 17.0917 113.359 17.4917 113.293 17.875H104.418C104.568 19.4583 105.051 20.5833 105.868 21.25C106.684 21.9167 107.734 22.25 109.018 22.25C110.301 22.25 111.476 22.0083 112.543 21.525L112.843 23.3C111.426 23.9333 110.059 24.25 108.743 24.25ZM111.068 16.325C111.068 15.4417 110.818 14.75 110.318 14.25C109.818 13.75 109.068 13.5 108.068 13.5C107.101 13.5 106.343 13.7417 105.793 14.225C105.243 14.6917 104.851 15.3917 104.618 16.325H111.068Z" fill="#00D563"/>
<path d="M116 5H146V33H116V5Z" fill="white"/>
<path d="M136.148 17.8379H122.386C121.698 17.8379 121.136 18.3629 121.136 19.0046C121.136 19.6462 121.698 20.1712 122.386 20.1712H136.148V22.2596C136.148 22.7846 136.823 23.0412 137.211 22.6679L140.686 19.4129C140.923 19.1796 140.923 18.8179 140.686 18.5846L137.211 15.3296C136.823 14.9562 136.148 15.2246 136.148 15.7379V17.8379V17.8379Z" fill="#00D563"/>
</svg>
