<svg width="92" height="49" viewBox="0 0 92 49" fill="none" xmlns="http://www.w3.org/2000/svg">
<path d="M3.74 25.2C2.86 25.2 2.21333 24.9733 1.8 24.52C1.4 24.0667 1.2 23.5067 1.2 22.84V10H3V21.8C3 22.3867 3.03333 22.8133 3.1 23.08C3.18 23.3467 3.32667 23.5267 3.54 23.62C3.75333 23.7133 4.1 23.76 4.58 23.76L4.32 25.2H3.74ZM10.5489 25.2C9.42891 25.2 8.46891 24.9733 7.66891 24.52C6.88224 24.0533 6.28224 23.4267 5.86891 22.64C5.45557 21.8533 5.24891 20.98 5.24891 20.02C5.24891 19.1 5.43557 18.26 5.80891 17.5C6.19557 16.7267 6.74891 16.12 7.46891 15.68C8.20224 15.2267 9.06224 15 10.0489 15C11.3022 15 12.3156 15.3667 13.0889 16.1C13.8756 16.8333 14.2689 17.8467 14.2689 19.14C14.2689 19.4733 14.2422 19.7933 14.1889 20.1H7.08891C7.20891 21.3667 7.59557 22.2667 8.24891 22.8C8.90224 23.3333 9.74224 23.6 10.7689 23.6C11.7956 23.6 12.7356 23.4067 13.5889 23.02L13.8289 24.44C12.6956 24.9467 11.6022 25.2 10.5489 25.2ZM12.4089 18.86C12.4089 18.1533 12.2089 17.6 11.8089 17.2C11.4089 16.8 10.8089 16.6 10.0089 16.6C9.23557 16.6 8.62891 16.7933 8.18891 17.18C7.74891 17.5533 7.43557 18.1133 7.24891 18.86H12.4089ZM18.3633 25.2C17.4566 25.2 16.7233 24.9333 16.1633 24.4C15.6166 23.8667 15.3433 23.1867 15.3433 22.36C15.3433 21.12 15.9299 20.2333 17.1033 19.7C18.2766 19.1667 19.6433 18.8867 21.2033 18.86C21.2033 17.98 21.0299 17.3867 20.6833 17.08C20.3499 16.76 19.8099 16.6 19.0633 16.6C18.6499 16.6 18.2366 16.6667 17.8233 16.8C17.4099 16.92 16.9633 17.1467 16.4833 17.48L16.2233 16.02C16.6233 15.7133 17.1166 15.4667 17.7033 15.28C18.2899 15.0933 18.9033 15 19.5433 15C20.3833 15 21.0499 15.1467 21.5433 15.44C22.0499 15.7333 22.4166 16.22 22.6433 16.9C22.8833 17.58 23.0033 18.5133 23.0033 19.7V21.7C23.0033 22.2333 23.0233 22.64 23.0633 22.92C23.1166 23.1867 23.2233 23.3933 23.3833 23.54C23.5433 23.6867 23.7899 23.76 24.1233 23.76H24.3033L24.0233 25.2H23.8833C23.3233 25.2 22.8833 25.1467 22.5633 25.04C22.2433 24.9333 21.9966 24.78 21.8233 24.58C21.6633 24.38 21.5099 24.1067 21.3633 23.76C20.5366 24.72 19.5366 25.2 18.3633 25.2ZM18.7033 23.76C19.1833 23.76 19.6433 23.64 20.0833 23.4C20.5366 23.16 20.9099 22.84 21.2033 22.44V20.1C19.7633 20.1533 18.7299 20.3467 18.1033 20.68C17.4899 21 17.1833 21.5267 17.1833 22.26C17.1833 22.7667 17.3166 23.1467 17.5833 23.4C17.8633 23.64 18.2366 23.76 18.7033 23.76ZM25.6927 15.2H27.1727L27.3927 16.82C27.8993 16.1933 28.3793 15.7333 28.8327 15.44C29.2993 15.1467 29.786 15 30.2927 15C30.4527 15 30.606 15.02 30.7527 15.06L30.5727 17.04C30.3993 17 30.1993 16.98 29.9727 16.98C29.4793 16.98 29.0127 17.0933 28.5727 17.32C28.1327 17.5333 27.8127 17.7867 27.6127 18.08V25H25.6927V15.2ZM36.8608 15C39.5274 15 40.8608 16.5333 40.8608 19.6V25H39.0608V19.6C39.0608 18.5467 38.8608 17.7867 38.4608 17.32C38.0741 16.84 37.4208 16.6 36.5008 16.6C35.9141 16.6 35.3808 16.7067 34.9008 16.92C34.4208 17.1333 34.0608 17.4533 33.8208 17.88V25H32.0208V15.2H33.4208L33.6208 16.24C34.1408 15.7733 34.6608 15.4533 35.1808 15.28C35.7141 15.0933 36.2741 15 36.8608 15ZM59.1248 15C61.6315 15 62.8848 16.4067 62.8848 19.22V25H61.0848V19.24C61.0848 18.32 60.9048 17.6533 60.5448 17.24C60.1848 16.8133 59.5982 16.6 58.7848 16.6C57.0515 16.6 56.1848 17.5067 56.1848 19.32V25H54.3848V19.6C54.3848 18.48 54.1848 17.7 53.7848 17.26C53.3982 16.82 52.8315 16.6 52.0848 16.6C51.4982 16.6 50.9782 16.7067 50.5248 16.92C50.0715 17.1333 49.7248 17.4533 49.4848 17.88V25H47.6848V15.2H49.0848L49.2848 16.24C49.7782 15.8 50.2715 15.4867 50.7648 15.3C51.2715 15.1 51.8115 15 52.3848 15C53.8782 15 54.9315 15.6533 55.5448 16.96C56.2248 15.6533 57.4182 15 59.1248 15ZM69.5039 25.2C68.5039 25.2 67.6372 24.98 66.9039 24.54C66.1706 24.0867 65.6106 23.4733 65.2239 22.7C64.8372 21.9267 64.6439 21.06 64.6439 20.1C64.6439 19.14 64.8372 18.2733 65.2239 17.5C65.6106 16.7267 66.1706 16.12 66.9039 15.68C67.6372 15.2267 68.5039 15 69.5039 15C70.4906 15 71.3506 15.2267 72.0839 15.68C72.8306 16.12 73.3972 16.7267 73.7839 17.5C74.1706 18.2733 74.3639 19.14 74.3639 20.1C74.3639 21.06 74.1706 21.9267 73.7839 22.7C73.3972 23.4733 72.8306 24.0867 72.0839 24.54C71.3506 24.98 70.4906 25.2 69.5039 25.2ZM69.5039 23.6C70.4639 23.6 71.2039 23.2933 71.7239 22.68C72.2572 22.0667 72.5239 21.2067 72.5239 20.1C72.5239 18.9933 72.2572 18.1333 71.7239 17.52C71.2039 16.9067 70.4639 16.6 69.5039 16.6C68.5439 16.6 67.7972 16.9067 67.2639 17.52C66.7439 18.1333 66.4839 18.9933 66.4839 20.1C66.4839 21.2067 66.7439 22.0667 67.2639 22.68C67.7972 23.2933 68.5439 23.6 69.5039 23.6ZM76.22 15.2H77.7L77.92 16.82C78.4267 16.1933 78.9067 15.7333 79.36 15.44C79.8267 15.1467 80.3133 15 80.82 15C80.98 15 81.1333 15.02 81.28 15.06L81.1 17.04C80.9267 17 80.7267 16.98 80.5 16.98C80.0067 16.98 79.54 17.0933 79.1 17.32C78.66 17.5333 78.34 17.7867 78.14 18.08V25H76.22V15.2ZM86.9942 25.2C85.8742 25.2 84.9142 24.9733 84.1142 24.52C83.3276 24.0533 82.7276 23.4267 82.3142 22.64C81.9009 21.8533 81.6942 20.98 81.6942 20.02C81.6942 19.1 81.8809 18.26 82.2542 17.5C82.6409 16.7267 83.1942 16.12 83.9142 15.68C84.6476 15.2267 85.5076 15 86.4942 15C87.7476 15 88.7609 15.3667 89.5342 16.1C90.3209 16.8333 90.7142 17.8467 90.7142 19.14C90.7142 19.4733 90.6876 19.7933 90.6342 20.1H83.5342C83.6542 21.3667 84.0409 22.2667 84.6942 22.8C85.3476 23.3333 86.1876 23.6 87.2142 23.6C88.2409 23.6 89.1809 23.4067 90.0342 23.02L90.2742 24.44C89.1409 24.9467 88.0476 25.2 86.9942 25.2ZM88.8542 18.86C88.8542 18.1533 88.6542 17.6 88.2542 17.2C87.8542 16.8 87.2542 16.6 86.4542 16.6C85.6809 16.6 85.0742 16.7933 84.6342 17.18C84.1942 17.5533 83.8809 18.1133 83.6942 18.86H88.8542Z" fill="#00D563"/>
<path d="M30 25H54V49H30V25Z" fill="white"/>
<path d="M46.1188 36.004H35.1088C34.5588 36.004 34.1088 36.454 34.1088 37.004C34.1088 37.554 34.5588 38.004 35.1088 38.004H46.1188V39.794C46.1188 40.244 46.6588 40.464 46.9688 40.144L49.7488 37.354C49.9388 37.154 49.9388 36.844 49.7488 36.644L46.9688 33.854C46.6588 33.534 46.1188 33.764 46.1188 34.204V36.004Z" fill="#00D563"/>
</svg>
