<svg width="127" height="67" viewBox="0 0 127 67" fill="none" xmlns="http://www.w3.org/2000/svg">
<path d="M12.155 53.55C9.735 53.55 7.90167 52.8533 6.655 51.46C5.40833 50.03 4.785 48.325 4.785 46.345V31.11H0.88L1.485 25.5H4.785V19.45L11.605 18.735V25.5H17.655V31.11H11.605V43.54C11.605 45.0067 11.6783 46.0333 11.825 46.62C12.0083 47.17 12.3567 47.5367 12.87 47.72C13.42 47.8667 14.3917 47.94 15.785 47.94H17.655L17.05 53.55H12.155ZM33.7013 53.55C30.5113 53.55 27.7796 52.9083 25.5063 51.625C23.2696 50.305 21.5829 48.5633 20.4463 46.4C19.3463 44.2 18.7963 41.7617 18.7963 39.085C18.7963 36.5183 19.3279 34.1717 20.3913 32.045C21.4546 29.9183 22.9946 28.2317 25.0113 26.985C27.0279 25.7017 29.4296 25.06 32.2163 25.06C34.7829 25.06 36.9463 25.5917 38.7063 26.655C40.5029 27.7183 41.8413 29.1483 42.7213 30.945C43.6379 32.7417 44.0963 34.7583 44.0963 36.995C44.0963 38.095 43.9496 39.3417 43.6563 40.735H25.8913C26.2579 43.155 27.2113 44.97 28.7513 46.18C30.2913 47.3533 32.1429 47.94 34.3063 47.94C37.2763 47.94 40.0263 47.1883 42.5563 45.685L42.8863 51.46C41.7129 52.0833 40.3379 52.5967 38.7613 53C37.2213 53.3667 35.5346 53.55 33.7013 53.55ZM37.1663 36.115C37.1663 34.685 36.7629 33.42 35.9563 32.32C35.1496 31.22 33.9029 30.67 32.2163 30.67C30.5296 30.67 29.1729 31.165 28.1463 32.155C27.1196 33.145 26.4229 34.465 26.0563 36.115H37.1663ZM53.0419 53.55C50.7686 53.55 48.8619 52.8167 47.3219 51.35C45.8186 49.8467 45.0669 47.83 45.0669 45.3C45.0669 42.9167 45.9286 41.01 47.6519 39.58C49.3752 38.1133 51.4102 37.0867 53.7569 36.5C56.1036 35.8767 58.3586 35.5283 60.5219 35.455C60.4486 33.8417 60.0269 32.6867 59.2569 31.99C58.5236 31.2933 57.2952 30.945 55.5719 30.945C54.3619 30.945 53.1702 31.11 51.9969 31.44C50.8602 31.77 49.5402 32.3017 48.0369 33.035L47.4319 27.48C50.7686 25.8667 54.1052 25.06 57.4419 25.06C60.6686 25.06 63.1252 25.94 64.8119 27.7C66.5352 29.46 67.3969 32.265 67.3969 36.115V43.54C67.3969 44.9333 67.4519 45.9417 67.5619 46.565C67.7086 47.1517 67.9286 47.5367 68.2219 47.72C68.5519 47.8667 69.0836 47.94 69.8169 47.94H70.6969L70.0919 53.55H67.6169C66.1136 53.55 64.8486 53.275 63.8219 52.725C62.7952 52.1383 62.0069 51.35 61.4569 50.36C60.5769 51.35 59.3669 52.1383 57.8269 52.725C56.3236 53.275 54.7286 53.55 53.0419 53.55ZM55.9019 48.325C56.5986 48.325 57.3869 48.16 58.2669 47.83C59.1469 47.4633 59.9169 46.9683 60.5769 46.345V40.075C58.3769 40.185 56.4336 40.6617 54.7469 41.505C53.0602 42.3483 52.2169 43.5217 52.2169 45.025C52.2169 46.1617 52.5102 47.005 53.0969 47.555C53.6836 48.0683 54.6186 48.325 55.9019 48.325ZM103.699 25.06C107.366 25.06 110.079 26.1783 111.839 28.415C113.636 30.615 114.534 33.7133 114.534 37.71V53H107.714V38.205C107.714 35.6017 107.311 33.695 106.504 32.485C105.698 31.275 104.378 30.67 102.544 30.67C100.748 30.67 99.3912 31.2933 98.4745 32.54C97.5578 33.75 97.0995 35.4733 97.0995 37.71V53H90.2795V38.205C90.2795 35.6017 89.8578 33.695 89.0145 32.485C88.1712 31.275 86.8328 30.67 84.9995 30.67C82.8362 30.67 81.0578 31.4583 79.6645 33.035V53H72.8445V25.5H78.6745L78.8945 27.7C81.3878 25.94 84.0828 25.06 86.9795 25.06C90.4995 25.06 93.1212 26.325 94.8445 28.855C95.7978 27.645 97.0445 26.71 98.5845 26.05C100.124 25.39 101.829 25.06 103.699 25.06Z" fill="white"/>
<path d="M118.337 45.52H125.487V53H118.337V45.52Z" fill="#00D563"/>
</svg>
