<svg width="92" height="26" viewBox="0 0 92 26" fill="none" xmlns="http://www.w3.org/2000/svg">
<path d="M8.84 25.4C7.08 25.4 5.74667 24.8933 4.84 23.88C3.93333 22.84 3.48 21.6 3.48 20.16V9.08H0.64L1.08 5H3.48V0.599999L8.44 0.079999V5H12.84V9.08H8.44V18.12C8.44 19.1867 8.49333 19.9333 8.6 20.36C8.73333 20.76 8.98667 21.0267 9.36 21.16C9.76 21.2667 10.4667 21.32 11.48 21.32H12.84L12.4 25.4H8.84ZM24.51 25.4C22.19 25.4 20.2033 24.9333 18.55 24C16.9233 23.04 15.6967 21.7733 14.87 20.2C14.07 18.6 13.67 16.8267 13.67 14.88C13.67 13.0133 14.0567 11.3067 14.83 9.76C15.6033 8.21333 16.7233 6.98667 18.19 6.08C19.6567 5.14667 21.4033 4.68 23.43 4.68C25.2967 4.68 26.87 5.06667 28.15 5.84C29.4567 6.61333 30.43 7.65333 31.07 8.96C31.7367 10.2667 32.07 11.7333 32.07 13.36C32.07 14.16 31.9633 15.0667 31.75 16.08H18.83C19.0967 17.84 19.79 19.16 20.91 20.04C22.03 20.8933 23.3767 21.32 24.95 21.32C27.11 21.32 29.11 20.7733 30.95 19.68L31.19 23.88C30.3367 24.3333 29.3367 24.7067 28.19 25C27.07 25.2667 25.8433 25.4 24.51 25.4ZM27.03 12.72C27.03 11.68 26.7367 10.76 26.15 9.96C25.5633 9.16 24.6567 8.76 23.43 8.76C22.2033 8.76 21.2167 9.12 20.47 9.84C19.7233 10.56 19.2167 11.52 18.95 12.72H27.03ZM38.5759 25.4C36.9226 25.4 35.5359 24.8667 34.4159 23.8C33.3226 22.7067 32.7759 21.24 32.7759 19.4C32.7759 17.6667 33.4026 16.28 34.6559 15.24C35.9093 14.1733 37.3893 13.4267 39.0959 13C40.8026 12.5467 42.4426 12.2933 44.0159 12.24C43.9626 11.0667 43.6559 10.2267 43.0959 9.72C42.5626 9.21333 41.6693 8.96 40.4159 8.96C39.5359 8.96 38.6693 9.08 37.8159 9.32C36.9893 9.56 36.0293 9.94667 34.9359 10.48L34.4959 6.44C36.9226 5.26667 39.3493 4.68 41.7759 4.68C44.1226 4.68 45.9093 5.32 47.1359 6.6C48.3893 7.88 49.0159 9.92 49.0159 12.72V18.12C49.0159 19.1333 49.0559 19.8667 49.1359 20.32C49.2426 20.7467 49.4026 21.0267 49.6159 21.16C49.8559 21.2667 50.2426 21.32 50.7759 21.32H51.4159L50.9759 25.4H49.1759C48.0826 25.4 47.1626 25.2 46.4159 24.8C45.6693 24.3733 45.0959 23.8 44.6959 23.08C44.0559 23.8 43.1759 24.3733 42.0559 24.8C40.9626 25.2 39.8026 25.4 38.5759 25.4ZM40.6559 21.6C41.1626 21.6 41.7359 21.48 42.3759 21.24C43.0159 20.9733 43.5759 20.6133 44.0559 20.16V15.6C42.4559 15.68 41.0426 16.0267 39.8159 16.64C38.5893 17.2533 37.9759 18.1067 37.9759 19.2C37.9759 20.0267 38.1893 20.64 38.6159 21.04C39.0426 21.4133 39.7226 21.6 40.6559 21.6ZM75.4178 4.68C78.0845 4.68 80.0578 5.49333 81.3378 7.12C82.6445 8.72 83.2978 10.9733 83.2978 13.88V25H78.3378V14.24C78.3378 12.3467 78.0445 10.96 77.4578 10.08C76.8711 9.2 75.9111 8.76 74.5778 8.76C73.2711 8.76 72.2845 9.21333 71.6178 10.12C70.9511 11 70.6178 12.2533 70.6178 13.88V25H65.6578V14.24C65.6578 12.3467 65.3511 10.96 64.7378 10.08C64.1245 9.2 63.1511 8.76 61.8178 8.76C60.2445 8.76 58.9511 9.33333 57.9378 10.48V25H52.9778V5H57.2178L57.3778 6.6C59.1911 5.32 61.1511 4.68 63.2578 4.68C65.8178 4.68 67.7245 5.6 68.9778 7.44C69.6711 6.56 70.5778 5.88 71.6978 5.4C72.8178 4.92 74.0578 4.68 75.4178 4.68Z" fill="#2F3E4D"/>
<path d="M86.0634 19.56H91.2634V25H86.0634V19.56Z" fill="#00D463"/>
</svg>
